Coordinates																																					
version=1																																					
nRows=12																																					
nColumns=38																																					
inDegrees=yes																																					
																																					
"Units are S.I. units (second, meters, Newtons, ...)"																																					
Angles are in degrees.																																					
																																					
endheader																																					
time	pelvis_tilt	pelvis_list	pelvis_rotation	pelvis_tx	pelvis_ty	pelvis_tz	hip_flexion_r	hip_adduction_r	hip_rotation_r	knee_angle_r	ankle_angle_r	subtalar_angle_r	mtp_angle_r	hip_flexion_l	hip_adduction_l	hip_rotation_l	knee_angle_l	ankle_angle_l	subtalar_angle_l	mtp_angle_l	lumbar_extension	lumbar_bending	lumbar_rotation	arm_flex_r	arm_add_r	arm_rot_r	elbow_flex_r	pro_sup_r	wrist_flex_r	wrist_dev_r	arm_flex_l	arm_add_l	arm_rot_l	elbow_flex_l	pro_sup_l	wrist_flex_l	wrist_dev_l
0	3.33692097	-2.14602808	-5.00755952	0.14079143	0.00504423	0.05969341	-22.97703592	2.80535341	6.50245428	-10.96403153	7.77779962	9.72313797	15.35526993	20.33642279	-2.43956235	-5.96454955	-5.75945131	0.86591569	9.24665336	6.13945447	-17.62555825	1.10781096	5.16169431	8.78142666	-27.94063888	12.85600193	75.05493603	0	0	0	-16.3551353	-16.9230127	-7.27800876	40.93322708	0.79773683	0	0
0.01	3.80647692	-1.88844138	-4.92987224	0.16526875	0.00480968	0.05402679	-23.48217745	2.4170519	6.39594331	-12.52310257	6.53790369	9.57004497	18.93460253	19.90065152	-1.85201349	-5.15787269	-7.24118201	-0.33595929	7.71816552	6.75494042	-18.04114315	0.85366241	5.25850839	8.15267095	-27.53530917	12.44368213	74.81832454	0.0735259	0	0	-15.28589906	-17.08521147	-6.45328818	39.47069541	0.67927087	0	0
0.02	3.72132852	-1.53748975	-5.03181385	0.18005732	0.00386499	0.04720399	-23.16893904	1.9764116	6.48262496	-14.46304665	6.00485196	9.67426248	19.19370538	19.98890198	-1.36561075	-5.42878832	-8.34423774	-2.12588483	7.19863457	6.45545542	-17.77223713	0.39600389	5.09684425	7.49110452	-27.37924003	12.5949396	74.53154728	0.04354462	0	0	-15.40390281	-17.13817216	-6.42613152	39.3320649	0.67322518	0	0
0.03	3.60266521	-0.93116366	-5.02133261	0.19417036	0.00309361	0.03536356	-22.6045036	1.26154428	5.96263282	-16.61349811	4.17929708	9.98097459	23.85224082	20.08657665	-0.47977308	-4.69654238	-9.19512502	-4.36562481	4.1847876	8.94534688	-17.43782702	-0.30025931	5.1941051	7.03461706	-26.59915025	11.98555007	72.80270253	0.07256522	0	0	-14.28808133	-17.15660068	-5.94854196	38.15815157	0.61615715	0	0
0.04	3.67987266	-0.4625352	-5.15927231	0.21165529	0.00341417	0.0263819	-22.06090818	0.6681925	5.96118608	-19.06165795	2.87882754	10.09812365	26.22984888	19.85028745	0.15546912	-4.22082579	-10.02144028	-6.57295939	1.74814447	10.07819926	-17.26622523	-0.90039484	5.24193551	6.20591725	-26.35299523	12.03110151	71.80357541	0.03244515	0	0	-14.04479455	-17.2868833	-5.80013126	37.59408764	0.59802504	0	0
0.05	3.73348092	0.05276433	-5.08625271	0.22861723	0.0041969	0.01647485	-21.37058061	0.14610178	5.84906986	-21.62661546	1.25435431	9.97470917	26.50763283	19.82616174	0.77926291	-4.0678899	-11.47416783	-7.86868304	1.46636682	10.07338967	-17.29336473	-1.44886819	4.91528824	5.68722898	-25.87396305	12.26108142	71.49536131	0	0	0	-13.71750094	-17.31494174	-5.75450676	37.505257	0.59651663	0	0
0.06	3.72646527	0.43692113	-4.93863226	0.24364074	0.00490938	0.00876949	-20.29335042	-0.2419331	5.53371239	-24.54395202	-1.51749965	9.44024546	32.86754645	20.07262467	1.3736127	-3.07431541	-13.31117553	-9.02000798	0.22655459	11.28721556	-17.1721523	-1.84419989	4.57326607	5.86626121	-24.72796761	11.94551108	68.71235169	0.05976522	0	0	-12.34371474	-17.27234697	-5.18335399	35.3944628	0.53718135	0	0
0.07	3.96968313	0.72381366	-4.80497354	0.26341231	0.00640281	0.00281528	-19.37664235	-0.56056803	5.24800469	-27.64112574	-3.48366674	9.44027116	32.70380425	20.01202059	1.82246543	-2.999888	-15.19560377	-9.28064712	0.36470531	11.28648611	-17.53439307	-2.09058135	4.14540872	5.18004388	-24.61706479	12.11569961	68.41565608	0.02691562	0	0	-12.24420832	-17.23610718	-5.16173793	35.4055759	0.53461382	0	0
0.08	4.17329617	1.11649583	-4.49362627	0.28261102	0.00799896	-0.00525381	-18.34834515	-1.00066383	4.5407562	-30.71143339	-6.0378152	9.72261502	32.65593146	19.92760282	2.46323404	-2.93881711	-17.06407353	-9.15243744	0.56627004	11.21259643	-17.70722257	-2.57624678	3.68061628	4.53526307	-24.36021859	12.35468065	67.9330488	0	0	0	-11.65783521	-17.2763562	-5.13175685	35.53988991	0.53853839	0	0
0.09	4.29114457	1.56503464	-4.35192465	0.2997848	0.00960693	-0.01447736	-16.93903342	-1.62861083	3.90470979	-34.06686749	-8.82520226	9.95937878	35.09658857	19.75165857	3.15258891	-2.93620447	-18.78477153	-7.20284136	1.51722536	7.99067115	-17.64635496	-3.01672529	3.72307363	4.51672394	-23.60844577	12.63484097	64.6022423	0.01528986	0	0	-10.16582194	-17.3153881	-4.61491083	34.28007618	0.47790146	0	0
0.1	4.54339128	1.7931744	-4.15600568	0.31911334	0.01136726	-0.01968591	-15.58411442	-1.94052337	3.54106719	-37.4652929	-11.45256906	9.84595892	34.71807709	19.35709551	3.6216617	-2.76348207	-20.30557303	-6.04607337	1.51979165	8.14901916	-18.02260809	-3.18639915	3.12691362	3.91277199	-23.51507436	12.77414448	64.31433935	0.00141081	0	0	-9.87376043	-17.25050375	-4.57455925	34.38107292	0.47392359	0	0
0.11	4.46038546	2.03286856	-3.98029508	0.33231668	0.01255503	-0.02513371	-13.71940187	-2.23550164	3.29932965	-40.90509574	-14.23264692	9.31982879	33.73790999	19.12407655	4.0906191	-2.55062252	-21.43481445	-4.55014339	1.73394768	6.5192586	-17.8689675	-3.34811342	3.16940787	3.38324676	-23.33088197	13.20796775	62.51272488	0.00843201	0	0	-8.97476332	-17.31246565	-4.34398859	34.53246788	0.43881913	0	0
